<?xml version="1.0" encoding="utf-8"?>
<!-- Generator: Adobe Illustrator 16.0.0, SVG Export Plug-In . SVG Version: 6.00 Build 0)  -->
<!DOCTYPE svg PUBLIC "-//W3C//DTD SVG 1.1//EN" "http://www.w3.org/Graphics/SVG/1.1/DTD/svg11.dtd">
<svg version="1.1" id="Layer_1" xmlns="http://www.w3.org/2000/svg" xmlns:xlink="http://www.w3.org/1999/xlink" x="0px" y="0px"
	 width="816px" height="271px" viewBox="0 0 816 271" enable-background="new 0 0 816 271" xml:space="preserve">
<g>
	<polygon fill="#F9D071" points="402,81 402,271 577,271 	"/>
	<polygon fill="#FBDB92" points="402,81 402,271 227,271 	"/>
</g>
<polygon fill="#F9D071" points="516,116 516,271 672,271 "/>
<polygon fill="#FCE2A8" points="516,116 516,271 360,271 "/>
<polygon fill="#F9CC66" points="666,151 666,271 816,271 "/>
<polygon fill="#FCE2A8" points="666,151 666,271 516,271 "/>
<polygon fill="#F8C550" points="622,201 622.013,271 728,271 "/>
<polygon fill="#FBDE9D" points="622,201 622,271 516,271 "/>
<polygon fill="#F8C550" points="258,0 258.022,271 516,271 "/>
<polygon fill="#FCE6B2" points="258,0 258,271 0,271 "/>
<polygon fill="none" points="-141.408,-1017.271 -138.408,-1017.271 -138.408,-1017.271 "/>
</svg>
